# xmcd
#
# Track frame offsets: 
#        150
#        31689
#        52535
#        74424
#        99269
#        111473
#        118163
#        138906
#        152117
#        176339
#        212236
#        257149
#        305858
#
# Disc length: 4384 seconds
#
# Revision: 0
# Processed by: cddbd v1.5.2PL0 Copyright (c) Steve Scherf et al.
# Submitted via: ExactAudioCopyFreeDBPlugin 1.0
#
DISCID=b3111e0d
DTITLE=Devin Townsend Project - Ocean Machine: Live at the Ancient Rom
DTITLE=an Theatre Plovdiv - CD III
DYEAR=2018
DGENRE=
TTITLE0=Seventh Wave
TTITLE1=Life
TTITLE2=Night
TTITLE3=Hide Nowhere
TTITLE4=Sister
TTITLE5=3 A.M.
TTITLE6=Voices In The Fan
TTITLE7=Greetings
TTITLE8=Regulator
TTITLE9=Funeral
TTITLE10=Bastard
TTITLE11=The Death of Music
TTITLE12=Things Beyond Things
EXTD=
EXTT0=
EXTT1=
EXTT2=
EXTT3=
EXTT4=
EXTT5=
EXTT6=
EXTT7=
EXTT8=
EXTT9=
EXTT10=
EXTT11=
EXTT12=
PLAYORDER=
